HIERARCHY
ROOT root     
{
	OFFSET 0.0000 0.0000 0.0000
	CHANNELS 6 Xposition Yposition Zposition Zrotation Yrotation Xrotation
	JOINT pelvis   
	{
		OFFSET 0.0000 0.0000 0.0000
		CHANNELS 3 Zrotation Yrotation Xrotation
		JOINT thorax   
		{
			OFFSET 0.0000 23.0750 -5.0000
			CHANNELS 3 Zrotation Yrotation Xrotation
			JOINT rclavicle
			{
				OFFSET 0.0000 28.0009 0.0000
				CHANNELS 3 Zrotation Yrotation Xrotation
				JOINT rhumerus 
				{
					OFFSET -18.5725 5.5939 0.0000
					CHANNELS 3 Zrotation Yrotation Xrotation
					JOINT rradius  
					{
						OFFSET -24.8459 0.0000 0.0000
						CHANNELS 3 Zrotation Yrotation Xrotation
						JOINT rhand    
						{
							OFFSET -24.5477 0.0000 0.0000
							CHANNELS 3 Zrotation Yrotation Xrotation
							End Site
							{
								OFFSET -8.1826 0.0000 0.0000
							}
						}
					}
				}
			}
			JOINT lclavicle
			{
				OFFSET 0.0000 28.0009 0.0000
				CHANNELS 3 Zrotation Yrotation Xrotation
				JOINT lhumerus 
				{
					OFFSET 18.5725 5.5939 0.0000
					CHANNELS 3 Zrotation Yrotation Xrotation
					JOINT lradius  
					{
						OFFSET 24.8459 0.0000 0.0000
						CHANNELS 3 Zrotation Yrotation Xrotation
						JOINT lhand    
						{
							OFFSET 24.5477 0.0000 0.0000
							CHANNELS 3 Zrotation Yrotation Xrotation
							End Site
							{
								OFFSET 8.1826 0.0000 0.0000
							}
						}
					}
				}
			}
			JOINT head     
			{
				OFFSET 0.0000 35.2030 0.0000
				CHANNELS 3 Zrotation Yrotation Xrotation
				End Site
				{
					OFFSET 0.0000 11.7343 0.0000
				}
			}
		}
		JOINT rfemur   
		{
			OFFSET -8.2817 0.0000 0.0000
			CHANNELS 3 Zrotation Yrotation Xrotation
			JOINT rtibia   
			{
				OFFSET 0.0000 -43.3627 0.0000
				CHANNELS 3 Zrotation Yrotation Xrotation
				JOINT rfoot    
				{
					OFFSET 0.0000 -38.2947 0.0000
					CHANNELS 3 Zrotation Yrotation Xrotation
					JOINT rtoes    
					{
						OFFSET 0.0000 0.0000 16.6054
						CHANNELS 3 Zrotation Yrotation Xrotation
						End Site
						{
							OFFSET 0.0000 0.0000 5.5351
						}
					}
				}
			}
		}
		JOINT lfemur   
		{
			OFFSET 8.2817 0.0000 0.0000
			CHANNELS 3 Zrotation Yrotation Xrotation
			JOINT ltibia   
			{
				OFFSET 0.0000 -43.3627 0.0000
				CHANNELS 3 Zrotation Yrotation Xrotation
				JOINT lfoot    
				{
					OFFSET 0.0000 -38.2947 0.0000
					CHANNELS 3 Zrotation Yrotation Xrotation
					JOINT ltoes    
					{
						OFFSET 0.0000 0.0000 16.6054
						CHANNELS 3 Zrotation Yrotation Xrotation
						End Site
						{
							OFFSET 0.0000 0.0000 5.5351
						}
					}
				}
			}
		}
	}
}
MOTION
Frames: 19
Frame Time: .0333333
-47.717 82.336 -3.3388 118.502 85.5881 139.27 0 -0 0 2.57548 -5.39165 20.7608 15.0078 -9.96445 -7.07399e-05 50.3073 8.52103e-05 9.39767 -0 82.2349 -0 -1.15084 4.25715 -0.042802 -14.9909 11.2383 2.28512e-05 -51.284 19.9617 5.7122 0 -63.0071 0 -1.44211 5.29673 -0.0666999 3.15854 -1.71846 -14.4193 3.18387 -7.89476 -36.2918 -0 -0 42.3476 -6.62858e-06 -4.18 -15.1517 1.09441 -6.3156e-07 -4.72999 -6.06525 10.7821 -47.517 -0 -0 61.6673 -2.22568e-05 13.0524 -4.9879 -1.15471 -1.19351e-05 -27.1811 
-47.088 82.346 -3.2925 119.173 85.4987 139.926 0 -0 0 2.47008 -5.09112 20.785 14.9601 -9.93894 1.80093e-05 50.0006 0.0539641 9.15532 -2.5515e-06 82.7932 -2.24906e-06 -1.2085 4.25573 -0.0448999 -15.0395 11.4105 3.1865e-05 -51.1658 20.2664 5.45532 0 -63.0981 0 -1.41089 5.33254 -0.0656993 2.98949 -1.74463 -14.4194 3.18466 -8.09061 -35.7289 -0 -0 42.1695 9.24811e-06 -4.17496 -15.4418 1.11341 2.06001e-07 -5.15666 -6.53704 10.5705 -48.6037 -0 -0 60.5763 -8.87909e-06 12.9475 -5.00545 -1.14909 -4.39e-07 -27.1974 
-46.449 82.348 -3.2487 119.857 85.4143 140.59 0 -0 0 2.36676 -4.79204 20.8081 14.9282 -9.91533 7.48685e-05 49.7011 0.0905157 8.89334 -0 83.3429 -0 -1.26326 4.24471 -0.0468027 -15.0953 11.5906 -1.97679e-05 -51.047 20.5606 5.22899 -8.066e-07 -63.2068 4.96296e-07 -1.39225 5.3929 -0.0656022 2.81614 -1.76817 -14.4318 3.18849 -8.29054 -35.1599 -0 -0 42.0037 -1.67791e-05 -4.16 -15.715 1.12861 -1.08724e-06 -5.54228 -7.01185 10.3543 -49.6267 -0 -0 59.3725 2.23056e-05 12.8367 -5.03307 -1.1453 -1.71177e-06 -27.1822 
-45.799 82.343 -3.207 120.547 85.3471 141.259 0 -0 0 2.26868 -4.49424 20.8259 14.907 -9.89444 7.74691e-07 49.4139 0.110576 8.61636 -2.58047e-06 83.8835 -2.31868e-06 -1.31159 4.22508 -0.0483998 -15.1548 11.789 -3.36826e-05 -50.9247 20.8312 5.04245 0 -63.3315 0 -1.38851 5.48029 -0.0665007 2.63641 -1.78821 -14.4592 3.19717 -8.49088 -34.5874 -0 -0 41.8521 9.0044e-06 -4.13407 -15.9707 1.13928 -1.53553e-08 -5.96398 -7.48494 10.1338 -50.584 -0 -0 58.0521 -6.24433e-06 12.7111 -5.05302 -1.1382 5.49444e-06 -27.3663 
-45.137 82.329 -3.168 121.229 85.2922 141.918 0 -0 0 2.17599 -4.19858 20.8384 14.8966 -9.87745 -2.30306e-06 49.1406 0.119442 8.33001 -4.1697e-06 84.4214 -4.59707e-06 -1.35011 4.19435 -0.0494012 -15.2256 12.0026 4.34351e-05 -50.7984 21.0891 4.89031 -8.12882e-07 -63.4749 5.02766e-07 -1.39775 5.58678 -0.0681971 2.44966 -1.80132 -14.5009 3.21168 -8.69261 -34.0116 -0 -0 41.7172 -1.91537e-05 -4.09234 -16.2162 1.14472 2.57075e-07 -6.37189 -7.95478 9.9133 -51.4708 -0 -0 56.6142 -2.27022e-06 12.5531 -5.08455 -1.13049 3.90402e-06 -27.5219 
-44.464 82.307 -3.1312 121.922 85.2314 142.582 0 -0 0 2.08965 -3.90576 20.8434 14.8931 -9.86508 -5.28865e-05 48.8836 0.119486 8.03875 -3.57488e-06 84.9385 -3.27269e-06 -1.37601 4.15478 -0.0499004 -15.3053 12.2399 -0.000116363 -50.6707 21.3272 4.77319 0 -63.6297 0 -1.42204 5.70834 -0.0709016 2.25647 -1.80713 -14.559 3.23356 -8.89402 -33.4343 -0 -0 41.5974 -1.00975e-05 -4.03534 -16.4601 1.1452 3.39764e-08 -6.78407 -8.41954 9.69833 -52.2898 -0 -0 55.0616 6.93661e-06 12.3513 -5.10313 -1.11578 3.53355e-06 -27.7787 
-43.779 82.276 -3.0967 122.6 85.2133 143.239 0 -0 0 2.00975 -3.6161 20.8389 14.8951 -9.85764 4.86491e-05 48.6453 0.112763 7.74557 -0 85.4706 -0 -1.38803 4.1089 -0.0498013 -15.3942 12.5017 -1.08805e-05 -50.5444 21.5494 4.68578 -8.20979e-07 -63.804 5.11058e-07 -1.46208 5.83773 -0.0744997 2.05838 -1.80566 -14.6327 3.26461 -9.09479 -32.8577 -0 -0 41.4943 -6.26712e-06 -3.96369 -16.7055 1.141 -3.05043e-07 -7.25047 -8.87742 9.49323 -53.0462 -0 -0 53.4002 2.07012e-05 12.0974 -5.09326 -1.09008 -1.58228e-06 -28.0975 
-43.084 82.236 -3.0645 123.263 85.1858 143.877 0 -0 0 1.93403 -3.32974 20.8245 14.9055 -9.85473 -5.68972e-06 48.4288 0.101004 7.45322 -0 85.9777 -0 -1.3861 4.05904 -0.0491007 -15.4917 12.7893 -1.60503e-05 -50.4255 21.7566 4.61903 -8.25715e-07 -63.9943 5.15912e-07 -1.51801 5.96576 -0.0790998 1.85932 -1.79808 -14.7246 3.30402 -9.29594 -32.2833 -0 -0 41.4052 3.11828e-06 -3.87795 -16.9623 1.13291 -8.95189e-08 -7.73667 -9.32875 9.30129 -53.7432 -0 -0 51.6418 -2.6971e-05 11.7892 -5.03638 -1.04961 -3.17751e-06 -28.4526 
-42.378 82.187 -3.0339 123.928 85.1968 144.525 0 -0 0 1.86182 -3.04721 20.798 14.9218 -9.85608 3.97027e-05 48.2364 0.0827112 7.16155 -4.1393e-06 86.4906 -4.40084e-06 -1.37133 4.01011 -0.0480009 -15.5932 13.1075 -2.16914e-05 -50.3195 21.9425 4.57061 0 -64.1992 0 -1.59207 6.0896 -0.084704 1.66286 -1.78772 -14.8343 3.35312 -9.4961 -31.7134 -0 -0 41.3324 -8.85538e-07 -3.7828 -17.2226 1.1215 -7.14753e-07 -8.38025 -9.77379 9.12544 -54.3929 -0 -0 49.8008 9.66855e-07 11.4291 -4.8945 -0.988197 -3.94997e-06 -29.0189 
-41.661 82.129 -3.0057 124.583 85.2091 145.162 0 -0 0 1.78856 -2.76717 20.7636 14.9473 -9.86043 -6.36856e-05 48.0694 0.0581544 6.87088 -3.43328e-06 86.9838 -3.61823e-06 -1.34776 3.96365 -0.0465985 -15.6975 13.4469 1.2555e-05 -50.2351 22.1169 4.52289 5.26932e-07 -64.416 -8.36477e-07 -1.68059 6.19602 -0.0910002 1.47369 -1.77717 -14.9618 3.40829 -9.69887 -31.1438 -0 -0 41.2718 -1.40717e-05 -3.67619 -17.5007 1.1069 6.9305e-08 -9.04422 -10.2162 8.96985 -54.9945 -0 -0 47.8941 4.87729e-06 11.0279 -4.68091 -0.911183 2.66998e-07 -29.5311 
-40.934 82.061 -2.9792 125.227 85.2448 145.794 0 -0 0 1.71328 -2.48986 20.7188 14.9786 -9.86696 8.43364e-05 47.9312 0.024083 6.57971 -5.5723e-06 87.483 -5.33357e-06 -1.31842 3.92436 -0.0452002 -15.8004 13.812 1.58882e-05 -50.1758 22.2744 4.47476 0 -64.6469 0 -1.78524 6.28622 -0.0980021 1.29561 -1.77074 -15.1067 3.46935 -9.90291 -30.5774 -0 -0 41.2237 8.22873e-07 -3.56257 -17.7785 1.08898 -7.50964e-07 -9.9136 -10.6582 8.8349 -55.5598 -0 -0 45.94 -6.54958e-06 10.6 -4.36506 -0.815997 -4.51296e-06 -30.2701 
-40.196 81.984 -2.9553 125.842 85.2859 146.393 0 -0 0 1.63275 -2.21229 20.67 15.0197 -9.87395 3.74423e-05 47.823 -0.0206349 6.28841 -5.15996e-06 87.9727 -5.34487e-06 -1.29004 3.89318 -0.043801 -15.8999 14.188 0.000155182 -50.1537 22.4269 4.40965 -8.48863e-07 -64.8874 5.39612e-07 -1.90028 6.35088 -0.105398 1.13092 -1.772 -15.2668 3.53231 -10.1108 -30.0092 -0 -0 41.1908 1.66067e-05 -3.43828 -18.0691 1.06761 -7.7143e-08 -10.7804 -11.1008 8.71978 -56.0833 -0 -0 43.9603 -2.04777e-07 10.1608 -3.98682 -0.713902 -4.11017e-06 -30.9151 
-39.445 81.896 -2.9334 126.452 85.3492 146.989 0 -0 0 1.54724 -1.93414 20.6168 15.0674 -9.88086 -5.68336e-06 47.7459 -0.0786138 5.99588 -2.08352e-05 88.4756 -2.10585e-05 -1.26625 3.8721 -0.0428014 -15.9934 14.5767 4.73065e-05 -50.1711 22.5691 4.32533 0 -65.1347 0 -2.02476 6.39425 -0.113098 0.980808 -1.78382 -15.4378 3.59629 -10.3218 -29.4372 -0 -0 41.174 9.56642e-06 -3.30481 -18.352 1.0415 -6.84937e-07 -11.7887 -11.5433 8.62532 -56.5629 -0 -0 41.971 2.8887e-06 9.72609 -3.5445 -0.607095 -3.52048e-06 -31.6991 
-38.682 81.798 -2.9137 127.052 85.4124 147.564 0 -0 0 1.45694 -1.65373 20.5654 15.1206 -9.88639 -8.67506e-06 47.7048 -0.150642 5.70382 -0 88.9709 -0 -1.25144 3.86096 -0.0422014 -16.0799 14.9704 9.16926e-06 -50.2323 22.7078 4.21222 0 -65.391 0 -2.15494 6.41846 -0.120797 0.84399 -1.80722 -15.6148 3.65935 -10.5356 -28.8564 -0 -0 41.1748 -7.93622e-06 -3.15989 -18.6116 1.0094 3.31356e-06 -13.0047 -11.9835 8.54879 -56.9943 -0 -0 39.9877 1.03322e-06 9.30766 -3.0674 -0.502503 -5.84234e-06 -32.6187 
-37.903 81.689 -2.8961 127.632 85.4972 148.108 0 -0 0 1.36577 -1.3673 20.5186 15.1765 -9.89014 6.85135e-07 47.6953 -0.234622 5.41628 -2.68183e-05 89.3683 -2.71008e-05 -1.25075 3.85901 -0.0421023 -16.158 15.3584 2.2816e-05 -50.3449 22.8498 4.06597 7.93634e-07 -65.648 -1.23035e-06 -2.28385 6.42207 -0.128103 0.717097 -1.84205 -15.7912 3.72174 -10.749 -28.2612 -0 -0 41.199 4.17685e-06 -2.99902 -18.8802 0.971207 7.9161e-06 -14.0342 -12.4087 8.48781 -57.3633 -0 -0 38.0379 2.73089e-06 8.91188 -2.61599 -0.410096 -1.3531e-06 -33.3906 
-37.107 81.567 -2.8801 128.236 85.5982 148.659 0 -0 0 1.27681 -1.0766 20.4782 15.2319 -9.89164 -1.78411e-05 47.7181 -0.328962 5.13672 -0.000215488 90 -0.000215556 -1.26292 3.86498 -0.0426005 -16.2322 15.7407 -0.000110429 -50.5027 22.9963 3.88656 -8.77625e-07 -65.9111 5.68973e-07 -2.41017 6.41837 -0.135204 0.595892 -1.88577 -15.9598 3.78374 -10.9619 -27.6475 -0 -0 41.2452 -8.70485e-06 -2.82231 -19.1105 0.924706 2.80085e-06 -15.2774 -12.8104 8.43945 -57.6616 -0 -0 36.129 1.65427e-06 8.54079 -2.18827 -0.328602 3.3329e-07 -34.3402 
-36.291 81.433 -2.8653 128.836 85.7377 149.189 0 -0 0 1.197 -0.778312 20.4451 15.2842 -9.89098 7.84425e-05 47.7731 -0.428428 4.87314 -180 89.7422 -180 -1.28935 3.87665 -0.0436015 -16.3005 16.1113 1.38731e-05 -50.7138 23.1539 3.67025 0 -66.1732 0 -2.52604 6.40795 -0.141396 0.474008 -1.93452 -16.1109 3.84766 -11.1688 -27.007 -0 -0 41.3164 -3.6817e-06 -2.626 -19.3274 0.869715 6.37954e-06 -16.4668 -13.1671 8.40006 -57.8785 -0 -0 34.291 -7.84932e-07 8.19033 -1.83915 -0.264607 -2.93836e-07 -35.1525 
-35.455 81.283 -2.8506 129.535 85.8791 149.785 0 -0 0 1.13334 -0.472311 20.4204 15.3305 -9.8878 -2.3473e-05 47.8543 -0.527427 4.6329 -180 89.3455 -180 -1.32676 3.89249 -0.0450982 -16.3664 16.4694 2.02151e-05 -50.9756 23.3254 3.41994 0 -66.4334 0 -2.62727 6.39631 -0.146799 0.345897 -1.98278 -16.2352 3.9173 -11.3646 -26.3357 -0 -0 41.4161 1.26034e-05 -2.40918 -19.5313 0.8058 5.50979e-06 -17.6043 -13.4571 8.36826 -58.0063 -0 -0 32.55 1.45189e-06 7.85357 -1.57995 -0.217893 2.45925e-06 -35.8279 
-34.596 81.12 -2.836 130.315 86.0719 150.443 0 -0 0 1.08709 -0.1639 20.3999 15.3713 -9.88357 -7.6445e-05 47.9565 -0.618366 4.42365 -180 89.0006 -180 -1.36914 3.91013 -0.0467015 -16.4347 16.8159 0.000122131 -51.2805 23.5139 3.1374 5.93168e-07 -66.6958 -9.01374e-07 -2.71274 6.39572 -0.151604 0.208108 -2.02473 -16.3279 3.99353 -11.5517 -25.6363 -0 -0 41.5412 -6.72838e-06 -2.17215 -19.7013 0.732585 3.86403e-07 -18.8679 -13.6598 8.33283 -58.0406 -0 -0 30.9155 -3.81045e-06 7.52774 -1.37995 -0.1823 -9.22233e-07 -36.5313 
